<?xml version="1.0" encoding="UTF-8"?>
<!DOCTYPE svg PUBLIC "-//W3C//DTD SVG 1.1//EN" "http://www.w3.org/Graphics/SVG/1.1/DTD/svg11.dtd">
<!-- Creator: CorelDRAW -->
<svg xmlns="http://www.w3.org/2000/svg" xml:space="preserve" width="112px" height="112px" version="1.1" shape-rendering="geometricPrecision" text-rendering="geometricPrecision" image-rendering="optimizeQuality" fill-rule="evenodd" clip-rule="evenodd"
viewBox="0 0 48 48"
 xmlns:xlink="http://www.w3.org/1999/xlink"
 xmlns:xodm="http://www.corel.com/coreldraw/odm/2003">
 <g id="Layer_x0020_1">
  <metadata id="CorelCorpID_0Corel-Layer"/>
  <rect fill="black" width="48" height="48"/>
  <path fill="white" d="M3 48l42 0 0 -5.82c0,-7.6 -13.48,-3.96 -14.42,-6.9 -0.69,-2.15 -1.01,-2.61 -1.01,-2.61 0.42,-1.09 1.41,-2.4 1.82,-3.81 0.47,-1.67 0.38,-1.58 0.38,-1.58 0,0 0.27,0.65 0.74,0.5 0.97,-0.31 1.39,-1.4 1.75,-2.34 0.32,-0.85 2.07,-3 0.88,-4.09 -0.44,-0.4 -0.92,-0.48 -1.65,-0.22 -0.72,0.27 -0.64,-0.15 -0.57,-0.42 0.07,-0.26 1.68,-4.88 0.62,-7.99 -1.05,-3.11 -5.38,-7.81 -11.82,-6.49 -2.94,0.6 -7.37,2.32 -6.18,6.07 0,0 -1.69,-1.32 -1.95,1.74 -0.26,3.06 1.32,6.67 0.92,7.09 -0.41,0.43 -1,-0.37 -1.59,-0.16 -2.17,0.76 0.31,3.51 0.74,4.5 0.61,1.44 1.55,2.92 2.09,2.31l0.39 -0.42c0.02,-0.02 0.02,0.1 0.06,0.21 0.13,0.4 0.69,2.82 2.2,5.03 0.16,0.23 -0.63,0.63 -0.98,2.68 -0.43,2.5 -14.55,-0.01 -14.42,6.5l0 6.22z"/>
 </g>
</svg>
